 <svg  version="1.0" xmlns="http://www.w3.org/2000/svg"  width="130.000000pt" height="99.000000pt" viewBox="0 0 468.000000 99.000000"  preserveAspectRatio="xMidYMid meet">  <g transform="translate(0.000000,99.000000) scale(0.100000,-0.100000)" fill="#ffffff" stroke="none"> <path d="M1428 943 c-2 -5 -2 -149 0 -321 l3 -312 57 0 57 0 2 320 2 320 -59 0 c-32 0 -60 -3 -62 -7z"/> <path d="M2630 630 l0 -320 58 0 58 0 2 320 2 320 -60 0 -60 0 0 -320z"/> <path d="M3350 630 l0 -320 50 0 c39 0 53 4 62 20 13 21 38 27 38 10 0 -14 75 -50 103 -50 41 0 115 39 139 73 51 71 74 208 44 267 -9 18 -16 39 -16 45 0 7 -17 30 -39 51 -69 69 -164 77 -218 18 -24 -26 -42 -31 -44 -11 -1 6 -1 58 1 115 l2 102 -61 0 -61 0 0 -320z m263 51 c89 -34 89 -255 1 -277 -44 -11 -96 3 -121 33 -19 24 -22 40 -23 106 0 65 4 84 21 105 29 38 76 50 122 33z"/> <path d="M4340 943 c-1 -7 -1 -599 0 -626 0 -4 26 -7 58 -5 l57 3 3 318 2 317 -60 0 c-33 0 -60 -3 -60 -7z"/> <path d="M121 776 c-26 -8 -55 -25 -72 -44 -25 -28 -29 -40 -29 -96 0 -51 4 -66 20 -81 27 -25 83 -45 145 -54 101 -14 141 -56 93 -101 -31 -29 -106 -28 -140 3 -14 12 -28 30 -31 39 -5 14 -18 18 -57 18 -56 0 -59 -6 -36 -61 19 -45 40 -63 104 -88 64 -25 111 -26 172 -4 75 27 110 71 110 136 0 35 -33 94 -60 108 -52 26 -93 39 -124 39 -19 0 -51 8 -71 17 -46 22 -49 61 -6 86 51 30 99 18 141 -35 17 -22 30 -28 60 -28 101 0 27 126 -88 149 -64 13 -72 13 -131 -3z"/> <path d="M611 777 c-48 -11 -141 -94 -141 -125 0 -10 -5 -23 -12 -30 -18 -18 -15 -100 6 -166 12 -39 31 -71 56 -95 39 -38 115 -71 162 -71 39 0 108 29 140 58 34 31 72 102 61 112 -15 14 -93 19 -104 7 -5 -7 -18 -24 -30 -39 -11 -16 -34 -30 -53 -34 -105 -19 -176 133 -111 237 45 71 111 76 170 13 32 -34 38 -36 80 -31 25 2 49 7 52 11 11 11 -31 77 -69 110 -23 20 -58 37 -88 44 -58 14 -59 13 -119 -1z"/> <path d="M1085 776 c-28 -6 -61 -19 -74 -28 -32 -23 -61 -68 -61 -95 0 -20 5 -23 44 -23 41 0 76 18 76 40 0 11 55 33 85 33 37 0 75 -29 75 -57 0 -34 -21 -47 -92 -56 -169 -23 -235 -90 -196 -200 15 -46 37 -65 96 -84 58 -20 121 -9 150 25 21 24 34 24 57 -1 25 -27 100 -25 99 3 0 9 -1 91 -2 181 l-2 164 -33 43 c-33 44 -46 49 -137 61 -19 3 -58 0 -85 -6z m153 -258 c7 -38 -18 -97 -52 -117 -62 -39 -146 -15 -146 42 0 32 23 50 95 75 68 24 98 24 103 0z"/> <path d="M1772 778 c-48 -12 -109 -66 -137 -119 -9 -19 -19 -62 -22 -96 -11 -118 45 -212 150 -255 87 -35 185 -11 248 61 54 61 52 71 -18 71 -49 -1 -63 -5 -93 -30 -19 -17 -40 -30 -47 -30 -32 0 -90 34 -112 65 -41 60 -32 64 151 67 l163 3 -2 34 c-5 105 -74 212 -145 224 -82 14 -96 15 -136 5z m139 -117 c16 -16 29 -38 29 -49 0 -18 -8 -20 -97 -24 -122 -5 -138 4 -102 56 27 39 35 43 97 45 36 1 49 -4 73 -28z"/> <path d="M2240 776 c-77 -25 -108 -63 -130 -157 -23 -104 7 -190 87 -246 45 -32 156 -33 189 -2 12 12 27 18 33 14 16 -9 13 -77 -4 -102 -32 -46 -134 -54 -173 -14 -10 11 -39 21 -70 25 -43 6 -53 4 -58 -9 -10 -26 12 -62 57 -92 40 -26 49 -28 148 -28 93 0 111 3 143 23 20 12 46 39 57 58 20 33 21 50 21 280 l0 244 -54 0 c-39 0 -55 -4 -60 -15 -7 -18 -32 -20 -39 -2 -5 13 -72 38 -98 36 -8 -1 -30 -6 -49 -13z m161 -118 c39 -47 38 -152 -2 -194 -18 -19 -32 -24 -73 -24 -55 1 -71 9 -99 52 -35 55 -7 165 47 189 35 15 105 2 127 -23z"/> <path d="M2982 777 c-48 -14 -142 -89 -142 -116 0 -9 -6 -23 -12 -29 -8 -8 -13 -41 -13 -85 0 -123 49 -197 155 -237 128 -48 258 18 304 153 20 61 20 92 -1 157 -12 36 -32 68 -63 99 -38 39 -56 48 -106 59 -69 14 -65 14 -122 -1z m112 -97 c53 -26 76 -67 76 -136 0 -75 -27 -125 -79 -149 -40 -17 -42 -17 -81 0 -55 25 -80 70 -80 146 0 91 36 138 119 158 3 1 23 -8 45 -19z"/> <path d="M3970 773 c-49 -10 -110 -76 -110 -120 0 -20 5 -23 40 -23 30 0 47 7 66 25 34 34 57 45 96 45 73 0 106 -65 48 -95 -16 -8 -44 -15 -62 -15 -36 0 -118 -27 -156 -50 -26 -17 -52 -70 -52 -106 0 -29 19 -73 42 -96 22 -22 119 -50 144 -42 37 12 69 29 77 41 12 19 30 16 50 -8 14 -15 27 -19 59 -17 l42 3 -3 180 c-2 144 -6 185 -18 205 -25 39 -51 61 -86 71 -32 9 -131 10 -177 2z m174 -249 c3 -8 1 -35 -5 -60 -8 -32 -20 -49 -44 -64 -62 -38 -145 -16 -145 40 0 35 21 53 95 78 73 26 91 27 99 6z"/> <path d="M4541 394 c-12 -15 -21 -32 -21 -39 0 -24 41 -65 65 -65 34 0 68 47 61 84 -7 35 -21 46 -58 46 -17 0 -34 -9 -47 -26z"/> <path d="M2144 77 c-16 -9 -19 -43 -4 -52 12 -7 2489 -7 2501 1 13 8 11 44 -3 49 -23 9 -2479 10 -2494 2z"/> </g> </svg>