 <svg  version="1.0" xmlns="http://www.w3.org/2000/svg"  width="800.000000pt" height="453.000000pt" viewBox="0 0 900.000000 453.000000"  preserveAspectRatio="xMidYMid meet">  <g transform="translate(0.000000,453.000000) scale(0.100000,-0.100000)" fill="#ffffff" stroke="none"> <path d="M2055 3323 c-137 -21 -354 -93 -415 -137 -8 -6 -26 -17 -40 -25 -85 -48 -248 -211 -323 -323 -134 -200 -182 -362 -181 -613 0 -198 19 -288 94 -454 80 -178 217 -342 368 -443 42 -28 88 -58 102 -67 59 -40 210 -94 315 -113 89 -16 374 -15 435 1 25 7 69 18 97 25 29 6 58 17 65 24 6 6 22 12 35 12 13 0 23 4 23 9 0 4 19 16 43 25 118 45 362 253 419 357 13 23 32 58 43 78 11 20 29 50 40 66 12 17 26 48 34 70 7 22 16 49 20 60 39 99 61 270 56 430 -5 140 -80 372 -161 500 -71 111 -186 234 -299 318 -86 63 -255 142 -360 168 -49 12 -97 24 -105 28 -17 8 -260 11 -305 4z m260 -113 c155 -25 195 -37 310 -92 67 -33 152 -88 199 -128 81 -70 176 -183 216 -256 11 -21 25 -46 29 -54 12 -21 37 -78 54 -125 70 -190 69 -476 -1 -660 -26 -69 -96 -209 -112 -225 -3 -3 -17 -23 -32 -45 -38 -55 -162 -173 -228 -216 -30 -20 -84 -51 -120 -69 -36 -17 -78 -38 -93 -46 -16 -8 -37 -14 -47 -14 -9 0 -33 -6 -51 -14 -19 -7 -88 -19 -154 -25 -100 -10 -138 -9 -225 3 -130 18 -265 57 -292 84 -7 7 -20 12 -29 12 -9 0 -22 7 -29 15 -7 8 -17 15 -22 15 -6 0 -27 13 -48 30 -21 17 -42 30 -46 30 -13 0 -224 218 -224 232 0 6 -6 19 -14 27 -21 23 -97 178 -107 215 -4 17 -12 45 -17 61 -24 68 -44 213 -40 285 5 93 26 215 44 257 8 17 14 38 14 46 0 9 7 28 15 44 7 15 23 48 35 73 64 137 201 293 336 382 74 49 190 106 239 119 17 4 44 12 60 18 29 10 199 38 240 40 11 0 74 -8 140 -19z"/> <path d="M1975 3064 c-27 -9 -65 -22 -83 -30 -18 -8 -39 -14 -46 -14 -8 0 -19 -7 -26 -15 -7 -8 -18 -15 -26 -15 -20 0 -134 -79 -193 -134 -116 -110 -194 -239 -247 -410 -15 -47 -18 -92 -18 -220 0 -163 6 -198 50 -304 8 -18 14 -39 14 -46 0 -8 7 -19 15 -26 8 -7 15 -18 15 -26 0 -47 173 -241 275 -309 76 -50 212 -115 241 -115 8 0 37 -7 63 -16 38 -12 80 -15 197 -11 141 4 200 13 269 42 217 89 341 194 462 390 7 11 15 27 19 35 3 8 12 29 19 45 39 91 45 107 45 125 0 10 7 45 15 77 17 65 19 196 4 263 -6 25 -14 63 -18 85 -48 226 -241 465 -456 564 -27 13 -62 30 -77 37 -14 8 -35 14 -46 14 -11 0 -36 7 -55 15 -51 21 -341 20 -412 -1z m419 -118 c56 -16 98 -33 173 -74 53 -28 172 -132 195 -171 12 -20 27 -39 34 -44 22 -13 81 -130 105 -207 20 -65 23 -96 23 -230 0 -178 -12 -226 -91 -362 -53 -90 -101 -144 -160 -182 -52 -32 -60 -33 -32 -3 47 49 48 107 4 227 -53 146 -74 201 -94 245 -12 26 -21 55 -21 64 0 9 -6 25 -13 36 -8 11 -26 56 -41 100 -36 104 -39 111 -65 168 -11 26 -21 53 -21 60 0 7 -9 29 -20 50 -11 20 -20 41 -20 47 0 20 -73 106 -112 132 -48 33 -76 30 -128 -15 -51 -45 -87 -98 -116 -175 -14 -37 -32 -80 -39 -97 -8 -16 -25 -61 -39 -100 -32 -92 -60 -168 -131 -350 -70 -183 -95 -260 -95 -300 0 -73 -40 -61 -110 32 -70 94 -126 246 -136 372 -8 92 10 239 36 296 10 22 21 51 25 64 7 24 39 77 75 123 11 15 26 38 33 51 40 77 309 246 396 248 20 1 47 5 61 10 40 13 258 3 324 -15z m-174 -232 c11 -25 20 -52 20 -59 0 -14 20 -66 46 -118 8 -16 14 -36 14 -46 0 -9 7 -26 15 -37 8 -10 15 -28 15 -40 0 -11 7 -29 15 -40 8 -10 15 -27 15 -36 0 -9 6 -29 14 -45 8 -15 22 -48 31 -73 9 -25 23 -58 31 -73 8 -16 14 -36 14 -46 0 -9 7 -26 15 -37 8 -10 15 -27 15 -36 0 -16 6 -30 44 -106 9 -19 16 -39 16 -46 0 -7 14 -39 30 -71 35 -69 36 -76 10 -100 -19 -17 -21 -17 -42 1 -13 10 -25 22 -28 26 -10 13 -321 328 -324 328 -2 0 -87 -83 -189 -185 -133 -133 -189 -184 -201 -179 -27 10 -25 57 6 123 27 60 42 96 63 151 9 25 23 58 31 73 8 16 14 36 14 45 0 9 7 26 15 36 8 11 15 28 15 37 0 10 6 30 14 46 8 15 22 48 31 73 9 25 23 58 31 73 8 16 14 36 14 45 0 9 7 26 15 36 8 11 15 29 15 40 0 12 7 30 15 40 8 11 15 29 15 40 0 12 7 30 15 40 8 11 15 30 15 42 0 13 4 25 9 28 5 4 12 24 16 45 6 36 14 45 48 50 4 0 17 -20 27 -45z m22 -871 c18 -15 69 -61 112 -101 44 -41 104 -86 133 -100 95 -47 65 -84 -112 -138 -46 -15 -91 -19 -190 -19 -114 0 -141 4 -219 28 -63 20 -98 38 -120 60 l-31 31 40 18 c44 21 101 65 224 176 91 81 112 87 163 45z"/> <path d="M4804 3011 c-61 -8 -147 -48 -207 -98 -16 -13 -35 -23 -44 -23 -8 0 -42 25 -74 55 -37 34 -72 56 -92 60 -38 7 -95 -12 -124 -43 -10 -10 -35 -38 -56 -60 -21 -23 -45 -42 -53 -42 -8 0 -42 25 -75 56 -107 99 -185 116 -270 60 -50 -33 -70 -33 -121 4 -76 55 -160 31 -226 -65 -34 -48 -39 -105 -37 -380 3 -290 5 -303 71 -368 41 -41 98 -63 136 -54 14 4 41 18 62 32 48 32 73 32 127 -5 55 -37 103 -39 147 -6 41 30 76 67 98 106 22 37 33 38 67 3 44 -47 60 -60 116 -97 43 -30 62 -36 103 -36 44 0 57 5 97 37 25 21 56 49 68 62 20 21 26 22 54 12 18 -6 47 -22 65 -36 18 -14 37 -25 42 -25 5 0 15 -6 21 -14 12 -14 33 -20 138 -35 92 -13 172 5 272 63 93 53 75 56 176 -24 81 -64 135 -53 233 50 26 27 52 50 58 50 6 0 21 -12 35 -26 13 -14 50 -46 82 -70 54 -40 64 -44 118 -44 45 0 66 5 94 24 l35 24 58 -29 57 -29 200 0 c203 -1 242 4 289 35 31 21 75 15 114 -15 67 -53 218 53 237 167 3 22 12 49 19 58 14 19 117 35 183 27 42 -4 42 -5 49 -51 14 -96 74 -176 150 -201 30 -10 43 -9 79 4 50 20 122 92 130 133 4 15 13 44 22 65 13 30 22 38 59 47 23 6 57 11 74 11 40 0 97 30 137 72 56 59 67 117 33 181 -27 50 -26 58 15 107 36 43 51 93 41 133 -11 45 -83 114 -137 132 -71 24 -437 17 -484 -8 -39 -22 -79 -21 -112 1 -24 15 -54 17 -243 16 -211 0 -216 -1 -269 -27 l-54 -26 -51 26 c-48 24 -60 26 -236 29 -226 5 -273 -3 -337 -57 -49 -40 -76 -48 -90 -26 -13 21 -119 67 -181 78 -32 7 -119 9 -202 7 -160 -5 -181 -12 -239 -72 -19 -20 -44 -36 -56 -36 -11 0 -45 16 -75 35 -93 60 -193 81 -316 66z m-1136 -109 c9 -7 12 -83 10 -348 l-3 -339 -52 -5 c-101 -10 -93 -39 -93 349 0 262 3 340 13 344 20 9 111 7 125 -1z m290 2 c12 -4 22 -10 22 -15 0 -6 20 -38 45 -72 25 -34 78 -107 118 -162 40 -55 82 -115 93 -134 35 -63 74 -91 74 -53 0 9 -5 58 -10 107 -16 154 -15 315 1 326 19 12 116 11 124 -1 5 -8 8 -456 5 -677 0 -9 -21 -13 -69 -13 -68 0 -69 0 -90 35 -11 20 -53 79 -93 133 -40 54 -77 105 -83 114 -33 53 -107 157 -119 167 -8 7 -17 8 -20 3 -3 -6 -1 -93 5 -196 11 -188 8 -255 -14 -257 -20 -2 -112 3 -115 6 -7 6 -4 674 3 685 7 11 86 14 123 4z m1097 -39 c71 -47 137 -137 133 -180 -3 -29 -4 -30 -63 -33 l-60 -2 -26 43 c-68 114 -223 115 -311 4 -32 -40 -33 -44 -33 -137 0 -94 1 -97 33 -138 44 -55 60 -63 148 -69 69 -6 76 -4 114 22 22 15 40 32 40 37 0 5 10 22 22 38 19 27 28 30 73 30 44 0 53 -3 62 -23 8 -17 6 -31 -8 -57 -10 -19 -21 -41 -25 -49 -17 -34 -101 -99 -153 -120 -59 -23 -164 -25 -219 -5 -102 38 -174 104 -212 194 -19 48 -19 232 0 280 22 52 75 124 107 146 83 56 118 64 235 59 81 -3 92 -6 143 -40z m727 1 c72 -48 93 -89 93 -185 0 -90 -23 -137 -86 -177 -43 -27 -46 -36 -23 -61 8 -10 37 -49 64 -88 27 -38 54 -75 60 -82 14 -17 13 -50 -2 -59 -7 -5 -39 -7 -72 -6 -60 3 -74 11 -96 57 -6 11 -19 34 -30 50 -11 17 -24 39 -30 50 -42 81 -39 80 -134 83 l-87 3 6 -108 c3 -59 3 -113 -2 -120 -10 -14 -23 -16 -90 -14 l-53 1 0 344 c0 265 3 345 12 348 7 3 104 3 215 2 l202 -3 53 -35z m743 33 c9 -10 14 -105 5 -119 -5 -9 -70 -12 -254 -12 -135 0 -255 3 -266 7 -17 5 -20 15 -20 65 0 34 5 60 11 62 19 6 517 3 524 -3z m633 -2 c15 -10 17 -113 2 -122 -6 -4 -121 -6 -255 -6 -134 0 -249 2 -255 6 -10 6 -15 117 -5 126 8 8 499 4 513 -4z m633 -47 c7 -64 3 -80 -20 -81 -110 -3 -480 1 -493 6 -14 6 -18 19 -18 59 0 29 4 56 10 62 5 5 116 9 262 9 l253 0 6 -55z m-2858 -220 c52 -25 84 -66 70 -89 -12 -19 -90 -60 -116 -60 -10 -1 -29 6 -42 15 -49 32 -20 147 38 153 4 1 26 -8 50 -19z m1557 -19 c14 -27 12 -93 -4 -113 -12 -16 -36 -18 -243 -18 -165 0 -232 3 -241 12 -15 15 -16 92 -2 119 10 18 24 19 245 19 221 0 235 -1 245 -19z m638 -44 c5 -90 5 -90 -180 -86 -96 3 -160 0 -166 -6 -5 -6 -5 -52 -1 -110 5 -55 6 -112 3 -127 -5 -27 -8 -28 -70 -28 -35 0 -64 4 -65 10 0 6 -1 96 -1 200 0 105 1 195 1 200 1 7 83 9 239 8 l237 -3 3 -58z m618 46 c21 -28 18 -97 -5 -118 -18 -15 -38 -17 -178 -14 l-158 4 -1 -125 c0 -69 -1 -131 -2 -137 -1 -9 -22 -13 -66 -13 -51 0 -65 3 -71 18 -10 26 -5 363 6 384 9 17 27 18 236 18 203 0 227 -2 239 -17z m-1221 -276 c6 -9 11 -33 9 -54 -1 -21 -2 -46 -3 -55 -1 -17 -20 -18 -259 -18 -187 0 -261 3 -270 12 -17 17 -15 98 2 117 13 14 48 16 262 15 215 -1 249 -3 259 -17z"/> <path d="M5446 2772 c-9 -8 -7 -180 2 -185 4 -3 63 -2 131 2 119 7 125 8 147 35 13 15 24 36 24 48 0 31 -29 73 -58 85 -29 12 -237 25 -246 15z"/> <path d="M5585 2002 c-17 -10 -51 -42 -76 -69 l-45 -51 -37 19 c-20 11 -58 22 -84 25 -30 4 -67 19 -98 39 -72 48 -84 49 -134 16 -49 -33 -81 -30 -123 9 -21 20 -29 21 -108 13 -107 -9 -136 -9 -181 0 -37 8 -36 8 -141 -72 -28 -23 -71 -27 -112 -11 -17 6 -44 6 -78 -1 -37 -7 -73 -6 -121 2 -47 7 -76 8 -97 1 -20 -8 -49 -7 -95 0 -56 10 -70 9 -105 -7 -25 -11 -49 -15 -67 -11 -15 4 -58 13 -94 21 -37 8 -95 30 -131 49 -71 39 -93 39 -143 -2 -45 -37 -54 -69 -54 -199 0 -126 5 -142 57 -190 29 -27 25 -26 117 -28 39 -1 106 -2 150 -3 172 -4 441 5 468 16 20 8 34 9 55 1 61 -25 94 -27 154 -12 55 14 65 14 117 -1 48 -15 75 -16 186 -8 78 5 137 5 148 0 12 -6 50 -6 100 1 45 5 129 7 187 4 179 -9 194 -6 273 50 13 9 21 9 35 0 9 -7 39 -24 65 -38 47 -25 53 -26 185 -21 75 3 279 6 452 6 381 1 407 1 640 2 102 0 213 -2 247 -4 60 -5 115 -29 143 -63 26 -32 98 -10 136 42 23 31 94 242 94 276 -1 30 -20 61 -54 88 -25 20 -43 24 -115 26 -47 1 -116 5 -153 8 -49 4 -78 1 -108 -11 -40 -16 -49 -16 -146 7 -42 10 -62 10 -111 -2 -50 -12 -68 -13 -109 -2 -27 7 -62 13 -78 13 -16 0 -55 14 -86 32 l-58 32 -43 -29 c-37 -24 -54 -28 -115 -29 -67 -1 -75 1 -114 33 -55 44 -91 51 -235 45 -66 -2 -124 -4 -130 -4 -5 0 -53 3 -105 6 -82 4 -99 3 -125 -14z m-867 -65 c7 -8 10 -59 8 -135 -3 -133 3 -154 43 -132 17 9 21 20 21 60 0 27 -4 52 -10 55 -5 3 -10 17 -10 31 0 20 5 24 28 24 42 0 52 -17 52 -89 0 -45 5 -70 16 -82 9 -10 13 -22 10 -28 -4 -5 -54 -10 -116 -9 -60 0 -114 -3 -120 -7 -6 -3 -26 -1 -46 5 -28 10 -40 21 -54 56 -17 40 -18 47 -5 85 18 50 50 78 92 79 41 0 46 10 23 45 -10 15 -16 34 -13 41 7 18 67 18 81 1z m233 3 c14 -8 19 -21 19 -56 0 -42 1 -44 24 -38 28 7 81 -18 96 -45 17 -32 12 -101 -10 -136 -22 -36 -46 -43 -122 -37 l-48 4 0 113 c0 88 -4 120 -17 143 -29 50 5 80 58 52z m248 1 c11 -7 13 -31 7 -129 -6 -103 -4 -122 10 -136 28 -28 10 -46 -46 -46 -42 0 -50 3 -50 19 0 10 7 21 15 25 12 4 15 24 15 92 0 71 -4 93 -21 121 -12 18 -18 40 -15 48 6 17 62 20 85 6z m738 -7 c8 -20 -9 -49 -28 -49 -33 -1 -40 -15 -22 -45 16 -27 16 -30 0 -48 -21 -23 -23 -95 -2 -112 8 -7 15 -21 15 -31 0 -16 -8 -19 -43 -19 -24 0 -48 5 -54 11 -8 8 -13 8 -17 0 -5 -7 -49 -11 -117 -11 -103 0 -109 1 -109 20 0 11 7 23 15 26 23 9 22 189 -1 202 -9 5 -14 18 -12 33 3 23 6 24 97 27 107 3 121 -3 121 -59 0 -34 -3 -39 -23 -39 -12 0 -28 9 -35 20 -8 14 -23 20 -47 20 -34 0 -35 -1 -35 -40 0 -40 0 -40 39 -40 24 0 41 -5 44 -14 8 -21 -14 -36 -49 -33 -27 2 -29 -1 -32 -34 -3 -34 -1 -37 29 -41 31 -5 37 -1 63 36 17 25 46 14 46 -17 0 -30 10 -40 27 -26 16 14 17 93 1 119 -10 15 -9 26 5 55 9 20 17 42 17 50 0 20 49 55 77 55 13 0 26 -7 30 -16z m145 -3 c11 -18 12 -18 30 3 18 21 18 21 33 2 30 -39 9 -79 -32 -61 -10 5 -33 9 -51 10 -40 2 -52 -17 -28 -44 21 -23 20 -38 -1 -49 -22 -13 -19 -99 4 -124 23 -25 7 -38 -48 -38 -55 0 -76 21 -44 44 14 10 16 22 11 67 -12 110 -5 150 36 184 35 30 73 32 90 6z m406 -14 c15 -24 15 -29 2 -37 -23 -15 -60 -12 -67 6 -8 22 14 66 33 62 8 -2 23 -16 32 -31z m-2853 3 c4 -11 0 -29 -9 -42 -23 -32 -22 -184 0 -209 24 -27 8 -39 -52 -39 -46 0 -54 3 -54 19 0 10 7 21 15 25 12 4 15 26 15 105 0 79 -3 100 -15 105 -15 5 -21 37 -8 49 3 4 28 7 54 7 39 0 49 -4 54 -20z m1214 -2 c10 -27 -3 -48 -29 -48 -25 0 -43 25 -35 50 9 28 53 27 64 -2z m-787 -71 c7 -7 21 -16 31 -20 18 -7 22 -24 8 -45 -7 -11 -16 -11 -49 -1 -55 16 -72 8 -72 -35 0 -19 3 -41 6 -50 8 -20 57 -21 74 -1 31 37 62 3 35 -38 -32 -49 -126 -41 -157 14 -10 17 -18 50 -18 74 0 37 5 49 37 80 38 37 80 46 105 22z m384 -8 c35 -21 48 -50 42 -90 -3 -21 -8 -24 -53 -25 -81 -2 -79 -1 -62 -26 12 -19 24 -23 63 -23 41 0 49 -3 49 -18 0 -30 -68 -49 -108 -32 -52 22 -70 52 -69 109 0 28 6 52 11 54 6 2 11 10 11 18 0 8 8 18 18 21 9 4 23 13 30 20 18 18 29 16 68 -8z m945 -3 c27 -19 38 -34 42 -62 8 -48 -2 -55 -72 -52 -55 3 -68 -5 -52 -31 6 -9 28 -15 63 -15 45 -1 53 -4 53 -19 0 -13 -13 -23 -38 -32 -122 -42 -193 137 -84 213 40 28 44 28 88 -2z m962 -1 c32 -23 36 -29 26 -46 -7 -14 -16 -18 -27 -14 -9 4 -31 9 -49 12 -26 4 -34 1 -49 -22 -16 -25 -16 -29 -1 -53 19 -33 48 -39 81 -17 28 19 46 13 46 -14 0 -31 -36 -54 -85 -54 -51 0 -67 10 -90 59 -23 48 -13 94 30 139 41 42 67 44 118 10z m320 -5 c38 -33 51 -71 32 -97 -9 -12 -22 -15 -56 -11 -24 4 -52 3 -61 0 -15 -6 -15 -9 -2 -27 12 -16 26 -20 67 -20 70 0 77 -25 14 -49 -39 -14 -47 -15 -71 -2 -51 26 -66 51 -66 108 1 57 13 80 57 110 38 24 47 23 86 -12z m466 16 c17 -21 49 -26 62 -10 6 8 27 14 45 14 l34 0 1 -52 c0 -29 4 -61 8 -72 12 -31 44 27 37 68 -3 17 -2 36 2 42 9 14 50 24 68 17 19 -7 18 -62 -1 -69 -8 -4 -15 -12 -15 -20 0 -12 -22 -61 -51 -116 -13 -25 -11 -66 3 -70 6 -2 9 -12 5 -21 -5 -13 -19 -17 -56 -17 -58 0 -73 19 -36 49 25 19 35 74 16 86 -5 3 -13 19 -16 37 -4 17 -15 44 -24 59 -15 24 -19 26 -32 14 -11 -11 -22 -12 -56 -2 -37 9 -45 9 -63 -8 -11 -10 -20 -28 -20 -39 1 -49 54 -74 87 -41 18 19 47 16 50 -5 2 -8 -6 -26 -16 -39 -14 -19 -28 -24 -65 -25 -42 -1 -51 3 -77 32 -23 25 -29 42 -29 77 0 38 6 52 36 85 39 42 81 53 103 26z m-3391 -13 c12 -3 22 -1 22 6 0 19 49 12 75 -11 22 -19 25 -30 25 -84 0 -48 4 -65 17 -72 31 -18 8 -42 -42 -42 -38 0 -45 3 -45 19 0 11 5 23 10 26 17 11 12 102 -6 109 -32 12 -54 6 -59 -16 -8 -32 1 -92 14 -96 6 -2 11 -12 11 -23 0 -16 -7 -19 -50 -19 -41 0 -50 3 -50 18 0 10 5 23 12 30 6 6 11 29 11 52 0 23 -5 46 -11 52 -25 25 -3 75 28 62 8 -4 25 -9 38 -11z m440 5 c10 -10 17 -10 32 0 30 19 57 15 63 -10 8 -28 -9 -48 -36 -45 -19 2 -23 -4 -27 -47 -5 -40 -3 -50 12 -60 10 -6 18 -19 18 -28 0 -15 -9 -18 -60 -18 -64 0 -77 14 -45 46 9 9 15 34 15 58 0 27 -6 48 -15 56 -16 13 -20 42 -8 53 10 11 38 8 51 -5z m1946 -4 c11 -11 16 -35 16 -81 0 -47 5 -72 16 -84 23 -26 9 -39 -41 -39 -50 0 -64 13 -41 39 18 20 22 106 6 116 -14 9 -12 52 3 58 20 9 25 8 41 -9z m334 4 c7 -7 12 -41 12 -82 0 -50 5 -74 16 -87 23 -26 9 -39 -41 -39 -50 0 -64 13 -41 39 18 20 23 121 6 121 -11 0 -14 43 -3 53 10 11 38 8 51 -5z m337 0 c19 -9 28 -9 37 0 19 19 60 14 85 -10 19 -18 23 -32 23 -85 0 -47 4 -65 15 -69 8 -4 15 -15 15 -25 0 -16 -8 -19 -49 -19 -30 0 -51 5 -54 13 -4 10 -7 10 -18 0 -20 -20 -108 -17 -116 3 -4 10 0 20 10 26 22 12 23 95 2 122 -10 13 -11 24 -4 37 11 22 19 23 54 7z"/> <path d="M4589 1766 c-23 -50 15 -106 62 -91 17 6 20 14 17 58 -3 51 -4 52 -35 55 -27 3 -35 -1 -44 -22z"/> <path d="M4964 1776 c-10 -26 1 -89 17 -99 13 -8 24 -6 43 6 21 14 26 26 26 56 0 41 -11 51 -56 51 -14 0 -27 -6 -30 -14z"/> <path d="M4381 1791 c-19 -12 -5 -31 23 -31 29 0 39 10 25 27 -13 15 -28 16 -48 4z"/> <path d="M5321 1789 c-31 -12 -17 -29 25 -29 22 0 34 5 34 14 0 18 -30 25 -59 15z"/> <path d="M6597 1789 c-22 -13 -13 -29 18 -29 29 0 43 19 24 31 -17 11 -20 11 -42 -2z"/> <path d="M6834 1776 c-3 -7 -4 -33 -2 -56 3 -50 27 -72 52 -51 22 19 22 107 0 115 -26 10 -44 7 -50 -8z"/> </g> </svg>