 <svg  version="1.0" xmlns="http://www.w3.org/2000/svg"  width="100.000000pt" height="100.000000pt" viewBox="0 0 675.000000 675.000000"  preserveAspectRatio="xMidYMid meet">  <g transform="translate(0.000000,675.000000) scale(0.100000,-0.100000)" fill="#000000" stroke="none"> <path d="M3869 4638 c-12 -11 -13 -181 -9 -1248 l5 -1235 30 0 30 0 3 1239 c2 985 0 1241 -10 1248 -18 11 -32 10 -49 -4z"/> <path d="M292 3398 c3 -1237 3 -1243 23 -1238 11 2 771 5 1688 7 l1668 2 2 1236 2 1235 -1693 0 -1692 0 2 -1242z m3244 1108 l35 -35 -3 -285 c-2 -156 -6 -288 -10 -291 -4 -4 -22 -1 -40 8 -59 27 -76 29 -281 29 -235 1 -307 -13 -435 -83 -82 -45 -105 -44 -137 5 -9 14 -36 38 -59 54 l-43 28 -289 -3 c-170 -2 -292 -7 -298 -13 -6 -6 -17 -10 -26 -10 -26 0 -141 -59 -177 -90 -18 -17 -39 -30 -44 -30 -15 0 -79 71 -79 87 0 17 -59 41 -132 53 -54 8 -64 7 -86 -10 -13 -11 -27 -18 -31 -16 -26 17 -221 27 -529 28 -322 2 -363 0 -386 -15 -14 -9 -39 -17 -56 -17 l-30 0 0 294 c0 265 2 296 18 315 l17 21 935 3 c514 1 1204 3 1533 5 l599 2 34 -34z m-2206 -677 c3 -4 4 -44 2 -89 l-4 -82 -161 3 -162 4 4 -402 3 -402 -98 -3 c-55 -2 -105 -1 -113 3 -11 5 -13 66 -10 335 2 181 3 361 3 399 l1 70 -110 1 c-60 0 -130 -3 -155 -7 -63 -10 -70 -1 -70 91 0 42 2 79 4 81 7 7 861 4 866 -2z m280 -478 l0 -490 -97 -3 c-54 -2 -101 -1 -105 2 -10 8 -10 13 -9 508 l1 472 105 0 105 0 0 -489z m996 476 c4 -4 7 -37 7 -74 0 -102 3 -101 -271 -93 -152 5 -236 3 -267 -4 -84 -22 -124 -81 -148 -217 -16 -88 -16 -102 -1 -185 17 -94 35 -132 81 -176 39 -37 87 -46 248 -49 l140 -3 1 92 c1 50 5 99 8 108 14 36 -8 41 -149 36 l-136 -5 3 89 3 89 240 0 240 0 -3 -195 c-1 -107 1 -233 6 -278 5 -56 4 -88 -3 -96 -7 -8 -89 -10 -325 -6 -303 6 -317 7 -365 30 -50 23 -155 120 -155 143 0 7 -5 18 -11 24 -7 7 -21 38 -31 70 -17 48 -20 86 -21 213 0 146 7 196 39 285 15 39 90 132 122 149 74 40 102 50 157 55 87 9 582 7 591 -2z m895 -1 c3 -56 -1 -158 -6 -167 -4 -6 -18 -8 -34 -4 -42 11 -332 13 -381 2 -55 -12 -108 -50 -121 -85 -5 -15 -14 -35 -19 -45 -21 -37 -32 -174 -21 -259 18 -136 65 -205 153 -227 52 -12 342 -14 373 -2 42 17 53 3 57 -69 4 -87 -3 -126 -23 -120 -8 2 -129 7 -269 10 -253 7 -255 7 -300 33 -25 15 -54 31 -65 36 -11 5 -29 19 -41 32 -28 32 -84 126 -84 142 0 6 -7 32 -16 57 -22 64 -22 360 1 392 8 13 15 31 15 41 0 30 103 177 125 177 7 0 18 7 25 15 7 8 20 15 30 15 10 0 23 7 30 15 14 17 59 20 353 21 149 0 217 -3 218 -10z m-3010 -236 c24 -11 62 -20 84 -20 108 -1 112 -13 110 -280 -2 -259 7 -358 42 -428 27 -56 42 -67 129 -92 36 -11 47 -10 86 8 29 12 50 17 59 11 27 -17 42 -10 35 15 -4 16 -1 28 7 33 8 4 22 21 33 38 17 27 19 54 22 319 4 303 8 330 51 363 22 17 76 16 111 -2 37 -19 39 -32 42 -375 l3 -276 32 -47 c47 -72 75 -90 141 -91 85 -2 144 25 185 83 42 58 70 69 92 35 8 -13 24 -24 34 -24 10 0 24 -6 30 -14 29 -35 165 -84 197 -72 9 3 23 1 30 -5 10 -8 93 -10 280 -8 l267 4 63 69 63 69 64 -42 c35 -22 72 -41 83 -41 11 0 24 -4 30 -8 5 -5 34 -19 65 -31 54 -21 68 -22 270 -18 179 3 222 7 261 23 73 29 73 29 75 -233 l2 -226 -34 -34 -33 -33 -1534 6 c-993 4 -1534 10 -1537 16 -2 6 -12 17 -22 26 -10 9 -16 19 -13 23 3 5 5 291 4 637 0 346 3 631 6 635 12 12 40 8 85 -13z m3073 -2 c3 -13 6 -124 6 -249 0 -271 -1 -274 -103 -229 -40 18 -62 20 -169 17 -139 -5 -162 0 -213 40 -60 47 -75 86 -71 190 4 96 15 126 63 180 l30 33 169 4 c120 3 181 8 209 19 56 22 72 20 79 -5z m-1021 -29 c-8 -8 -19 -8 -40 -1 -28 10 -28 10 12 11 28 1 36 -2 28 -10z m-403 -26 c0 -9 -76 -83 -85 -83 -3 0 -5 14 -5 30 0 20 5 30 15 30 9 0 18 7 21 15 6 15 54 22 54 8z m-50 -330 c0 -20 -24 -11 -28 10 -2 12 1 15 12 11 9 -3 16 -13 16 -21z m51 -28 c-1 -15 -24 -12 -29 3 -3 9 2 13 12 10 10 -1 17 -7 17 -13z"/> <path d="M650 2945 c0 -8 9 -15 20 -15 11 0 20 7 20 15 0 8 -9 15 -20 15 -11 0 -20 -7 -20 -15z"/> <path d="M4063 4604 c-10 -27 2 -49 30 -52 l28 -3 -1 -127 c-2 -177 -4 -164 28 -160 l27 3 -4 143 c-3 134 -2 142 16 142 10 0 24 5 31 12 13 13 16 48 5 49 -94 7 -156 4 -160 -7z"/> <path d="M4277 4613 c-3 -5 -7 -84 -8 -176 -3 -134 0 -170 11 -177 30 -19 40 0 40 76 0 60 3 76 16 81 37 14 49 -10 45 -86 -3 -66 -2 -71 17 -71 12 0 24 5 28 11 3 6 7 83 7 170 0 166 -5 190 -39 171 -15 -8 -18 -23 -19 -79 0 -66 -1 -68 -27 -71 l-27 -3 -3 78 c-2 63 -6 78 -20 81 -9 2 -18 -1 -21 -5z"/> <path d="M4538 4613 l-48 -4 0 -168 0 -168 46 -7 c80 -11 102 -8 109 14 10 31 -2 40 -51 40 l-45 0 3 47 c3 45 4 47 33 48 25 0 30 4 30 25 0 21 -5 25 -30 25 -25 1 -31 6 -36 30 -9 49 4 64 50 58 37 -5 41 -3 46 20 4 14 4 31 0 36 -6 11 -13 11 -107 4z"/> <path d="M4114 4158 c-5 -7 -7 -170 -4 -363 l5 -350 50 0 50 0 5 350 c3 193 3 356 1 363 -2 7 -21 12 -51 12 -27 0 -51 -5 -56 -12z"/> <path d="M4407 4163 c-4 -3 -7 -168 -7 -365 l0 -359 58 3 57 3 -3 95 c-2 52 -8 146 -13 208 -13 138 -8 158 26 117 13 -17 24 -41 25 -55 0 -14 6 -45 14 -70 8 -25 22 -72 31 -105 9 -33 21 -73 27 -90 6 -16 13 -42 15 -58 3 -15 10 -30 16 -34 18 -11 96 -13 102 -2 4 5 6 168 6 362 l0 352 -48 0 -48 0 3 -227 c3 -199 2 -228 -11 -228 -9 0 -18 13 -22 30 -4 16 -11 32 -16 35 -5 4 -9 21 -9 38 0 18 -6 52 -14 77 -30 92 -46 149 -46 167 0 20 -20 80 -33 101 -8 12 -98 17 -110 5z"/> <path d="M4945 4159 c-3 -8 -4 -172 -3 -364 l3 -350 105 3 c123 4 157 13 193 50 38 40 47 96 47 317 0 223 -7 257 -60 312 -32 32 -35 33 -119 33 -47 0 -103 3 -123 6 -27 5 -39 3 -43 -7z m212 -111 c23 -21 23 -25 23 -240 0 -207 -1 -219 -21 -239 -15 -15 -30 -19 -61 -17 l-41 3 1 253 c0 138 1 254 1 257 1 3 18 5 38 5 24 0 45 -8 60 -22z"/> <path d="M5455 4158 c-3 -7 -4 -171 -3 -363 l3 -350 55 0 55 0 0 360 0 360 -53 3 c-36 2 -54 -1 -57 -10z"/> <path d="M5824 4159 c-3 -5 -8 -35 -10 -67 -3 -31 -11 -91 -19 -132 -7 -41 -21 -120 -30 -175 -9 -55 -20 -122 -26 -150 -20 -100 -29 -170 -24 -183 3 -9 20 -12 52 -10 l48 3 12 50 c6 28 12 67 12 88 l1 38 58 -3 57 -3 11 -78 c6 -44 16 -82 23 -86 7 -4 31 -7 54 -7 l42 1 -3 58 c-2 32 -10 76 -18 99 -8 22 -14 63 -14 90 0 27 -5 58 -10 69 -6 10 -13 49 -16 87 -4 37 -12 89 -20 116 -8 27 -14 76 -14 108 0 89 -6 95 -90 96 -38 0 -73 -4 -76 -9z m109 -307 c2 -54 8 -107 12 -119 7 -22 5 -23 -45 -23 -50 0 -52 1 -46 23 4 12 9 69 12 127 7 135 8 139 38 111 21 -20 25 -34 29 -119z"/> <path d="M6235 4158 c-3 -7 -4 -171 -3 -363 l3 -350 53 -3 c41 -2 54 0 59 14 3 9 1 107 -5 218 -5 110 -9 203 -7 204 2 2 11 -1 21 -6 11 -6 23 -33 31 -69 8 -32 17 -74 21 -93 5 -19 14 -45 20 -57 7 -12 12 -34 12 -50 1 -15 7 -39 15 -53 8 -14 15 -36 15 -50 0 -14 4 -30 8 -37 9 -14 108 -27 116 -15 3 5 6 168 7 363 l1 354 -54 0 -53 0 1 -35 c2 -58 5 -353 5 -387 -1 -21 -6 -33 -14 -33 -14 0 -32 56 -46 140 -4 25 -13 55 -19 67 -7 12 -12 32 -12 44 0 11 -6 42 -14 68 -8 25 -20 66 -28 91 l-13 45 -58 3 c-40 2 -59 -1 -62 -10z"/> <path d="M4224 3326 c-49 -13 -69 -28 -100 -78 -24 -37 -24 -42 -24 -283 0 -243 0 -246 24 -284 37 -58 81 -81 155 -81 41 0 71 6 89 17 65 42 79 81 83 244 l4 134 -85 0 -85 0 -3 -47 c-3 -47 -3 -48 27 -48 l31 0 0 -86 c0 -77 -2 -88 -22 -105 -29 -23 -47 -23 -78 1 l-25 19 0 226 c-1 142 3 235 10 248 14 29 70 35 96 11 14 -12 19 -31 19 -66 l0 -49 58 3 57 3 3 42 c4 49 -21 104 -65 146 -36 34 -109 48 -169 33z"/> <path d="M4635 3301 c-3 -14 -10 -45 -15 -69 -6 -23 -10 -62 -10 -86 0 -25 -5 -57 -11 -73 -6 -15 -14 -62 -19 -103 -8 -73 -17 -126 -40 -240 -6 -30 -14 -72 -17 -93 l-5 -38 58 3 59 3 3 75 c3 86 14 100 73 100 47 0 69 -21 71 -68 1 -20 2 -44 4 -52 1 -8 2 -25 3 -38 1 -22 5 -23 59 -20 63 3 62 1 44 78 -24 101 -34 159 -40 230 -4 41 -11 81 -16 89 -5 8 -13 48 -18 90 -4 42 -14 112 -21 156 l-13 80 -72 1 c-70 1 -73 0 -77 -25z m95 -219 c0 -31 5 -75 11 -97 6 -22 13 -56 16 -76 5 -35 3 -37 -26 -44 -17 -3 -40 -4 -51 0 -19 6 -20 12 -15 53 13 102 28 188 36 210 15 38 29 15 29 -46z"/> <path d="M4993 3323 c-4 -2 -7 -164 -7 -361 l2 -357 51 -3 51 -3 0 150 c0 94 4 152 11 156 5 4 21 4 33 1 17 -4 26 -17 34 -48 5 -24 15 -65 22 -93 7 -27 16 -70 19 -95 10 -64 16 -70 72 -70 60 0 66 10 44 71 -9 24 -21 64 -26 89 -5 24 -14 49 -19 54 -6 6 -10 22 -10 36 0 14 -7 35 -15 46 -13 19 -12 23 12 45 41 38 63 101 63 180 0 82 -21 132 -72 171 -30 23 -44 26 -145 29 -62 3 -116 3 -120 2z m196 -112 c26 -20 39 -91 27 -153 -7 -38 -57 -72 -97 -66 -24 3 -24 5 -27 121 l-3 117 38 0 c21 0 49 -9 62 -19z"/> <path d="M5515 3316 c-1 -6 -10 -56 -19 -111 -10 -55 -21 -122 -27 -150 -5 -27 -14 -85 -19 -128 -6 -44 -15 -87 -20 -97 -6 -10 -10 -41 -10 -68 0 -27 -7 -69 -15 -92 -24 -69 -23 -71 43 -68 l57 3 5 78 c6 88 13 97 76 97 60 0 74 -20 74 -108 l0 -72 60 0 c57 0 60 1 60 24 0 13 -7 40 -15 59 -8 20 -15 53 -15 74 0 21 -7 60 -15 87 -8 27 -15 68 -15 90 0 23 -7 70 -15 106 -8 36 -19 106 -26 155 -18 147 -9 134 -90 133 -43 0 -72 -5 -74 -12z m86 -183 c0 -5 5 -44 10 -88 6 -44 11 -102 12 -130 l2 -50 -40 0 -40 0 1 55 c1 41 17 187 23 218 2 6 31 1 32 -5z"/> <path d="M5945 3321 c-29 -13 -72 -61 -84 -94 -15 -40 -14 -474 1 -518 15 -43 39 -78 56 -79 7 0 15 -7 18 -15 5 -11 24 -15 81 -15 65 0 79 3 109 27 64 48 75 85 72 236 l-3 132 -85 0 -85 0 -3 -47 c-3 -46 -3 -47 30 -50 l33 -3 3 -78 c3 -71 1 -79 -22 -102 -30 -30 -53 -31 -83 -6 -23 19 -23 23 -23 251 0 140 4 239 10 251 8 14 21 19 50 19 47 0 76 -33 67 -77 -8 -45 1 -53 59 -53 l54 0 0 50 c0 56 -24 112 -64 149 -21 20 -38 25 -98 27 -40 2 -82 0 -93 -5z"/> <path d="M6304 3318 c-3 -4 -5 -166 -5 -360 l-1 -353 159 0 158 0 0 55 0 55 -102 -3 -103 -3 0 111 0 110 80 -6 80 -7 0 52 c0 33 -4 51 -12 52 -7 1 -43 0 -80 -1 l-68 -2 0 105 0 105 103 -1 102 -2 0 50 0 49 -153 1 c-85 0 -156 -3 -158 -7z"/> <path d="M4096 2496 c-25 -23 -26 -27 -26 -150 0 -115 2 -128 22 -151 16 -19 31 -25 62 -25 23 0 46 4 52 8 20 13 34 50 34 87 0 34 -2 36 -27 33 -22 -2 -28 -8 -29 -28 -1 -47 -4 -51 -26 -48 -22 3 -23 8 -26 103 -2 55 0 110 3 123 11 44 55 14 55 -38 0 -16 5 -21 22 -18 28 4 34 30 18 79 -18 55 -88 68 -134 25z"/> <path d="M4305 2495 c-24 -23 -25 -30 -25 -149 0 -115 2 -127 23 -150 36 -42 112 -37 137 9 17 31 17 234 0 275 -19 46 -96 55 -135 15z m85 -44 c5 -11 10 -60 10 -108 0 -95 -13 -132 -44 -120 -13 5 -16 24 -16 120 0 63 3 117 7 120 12 13 32 7 43 -12z"/> </g> </svg>