 <svg  version="1.0" xmlns="http://www.w3.org/2000/svg"  width="100.000000pt" height="100.000000pt" viewBox="0 0 345.000000 180.000000"  preserveAspectRatio="xMidYMid meet">  <g transform="translate(0.000000,180.000000) scale(0.100000,-0.100000)" fill="#ffffff" stroke="none"> <path d="M3255 1758 c-11 -6 -26 -20 -33 -30 -23 -32 -96 -67 -163 -77 -124 -20 -194 -69 -234 -165 -29 -68 -11 -236 25 -236 6 0 15 12 21 28 22 58 89 108 184 137 166 50 194 80 219 232 9 58 13 110 9 114 -4 4 -17 3 -28 -3z m-25 -112 c0 -17 -79 -89 -120 -108 -19 -9 -57 -24 -83 -35 -53 -20 -113 -72 -139 -121 -34 -63 -53 -20 -23 51 14 33 98 117 117 117 6 0 24 6 41 14 18 7 52 21 77 32 25 10 52 24 61 31 8 7 20 13 26 13 6 0 14 7 17 16 6 17 26 10 26 -10z"/> <path d="M161 1515 c-13 -18 7 -433 24 -509 18 -76 70 -211 92 -237 7 -8 13 -19 13 -23 0 -11 84 -117 120 -151 62 -59 217 -136 315 -155 132 -26 182 -31 395 -36 129 -3 248 -10 265 -15 24 -8 32 -6 43 8 7 10 11 27 8 39 -7 27 -9 705 -2 712 3 2 59 0 124 -5 104 -9 126 -15 178 -42 70 -38 125 -95 154 -159 12 -26 28 -60 37 -75 12 -23 15 -69 14 -252 l-1 -223 122 4 c68 2 197 6 288 8 222 6 357 40 566 142 131 65 296 304 320 464 3 25 10 50 15 55 4 6 9 96 10 200 2 202 -3 221 -42 170 -24 -29 -70 -52 -174 -86 -112 -37 -185 -125 -185 -223 0 -112 -98 -251 -212 -303 -83 -38 -144 -53 -222 -54 -90 -2 -96 2 -96 75 0 67 -23 143 -79 256 -58 119 -63 126 -141 190 -36 29 -70 58 -75 64 -30 32 -158 89 -236 105 -19 4 -41 11 -47 15 -6 3 -59 15 -119 26 -81 14 -164 19 -333 21 l-225 3 0 -377 c0 -244 -4 -377 -10 -378 -73 -4 -213 5 -238 16 -18 7 -39 16 -47 20 -55 22 -119 83 -150 143 -12 23 -26 45 -31 48 -5 3 -9 16 -9 28 0 13 -7 37 -15 52 -12 23 -15 68 -15 229 1 110 1 205 1 210 -1 14 -390 14 -400 0z m189 -64 c5 -11 10 -30 10 -43 1 -23 1 -23 21 5 25 33 36 33 72 3 l29 -23 3 -159 c1 -107 6 -159 14 -162 6 -2 11 -13 11 -23 0 -50 34 -126 76 -168 24 -24 44 -49 44 -55 0 -16 64 -64 96 -72 16 -4 50 -22 75 -39 50 -34 135 -53 153 -35 5 5 29 10 52 10 37 0 48 6 91 47 l48 47 0 306 c1 168 2 311 3 319 1 7 9 11 17 7 8 -3 18 1 22 8 12 21 385 24 433 4 8 -4 44 -11 79 -17 35 -6 72 -17 81 -26 11 -10 27 -13 46 -9 21 4 34 1 43 -10 8 -9 21 -16 31 -16 10 0 23 -7 30 -15 7 -8 23 -15 36 -15 17 0 22 -4 17 -15 -7 -20 24 -44 49 -37 10 2 18 -1 18 -7 0 -6 -4 -11 -10 -11 -13 0 -13 -27 0 -35 6 -4 17 -1 25 5 12 10 17 8 24 -11 13 -31 46 -69 60 -69 6 0 11 -14 11 -30 0 -17 6 -33 14 -36 8 -3 18 -19 21 -35 4 -16 10 -29 14 -29 13 0 30 -46 37 -102 8 -56 41 -137 72 -176 31 -39 176 -58 202 -27 7 8 25 15 40 15 15 0 33 7 40 15 6 7 31 17 55 21 24 3 52 15 61 25 9 10 25 19 35 19 10 0 23 9 29 21 7 13 19 19 33 17 15 -2 23 3 25 17 2 11 11 26 20 33 9 7 17 27 18 44 1 21 11 39 28 53 28 22 45 78 27 89 -17 11 -13 40 9 59 21 18 27 61 10 72 -5 3 -10 13 -10 22 0 11 7 14 28 9 15 -3 21 -3 15 0 -18 8 -16 34 2 34 8 0 15 -7 15 -15 0 -28 30 -16 36 14 7 31 8 32 91 61 l51 18 7 -93 c4 -51 4 -113 1 -137 -4 -24 -8 -56 -10 -73 -4 -50 -26 -94 -42 -88 -11 4 -14 -4 -14 -35 0 -32 -7 -48 -40 -83 -39 -43 -50 -69 -30 -69 6 0 10 -4 10 -10 0 -5 -4 -10 -9 -10 -12 0 -71 -59 -71 -71 0 -5 -11 -7 -24 -3 -19 4 -29 -1 -47 -25 -12 -17 -30 -31 -39 -31 -8 0 -27 -8 -40 -17 -14 -10 -27 -15 -30 -13 -3 3 -9 -5 -15 -18 -6 -14 -18 -22 -33 -22 -13 0 -35 -9 -49 -20 -27 -21 -60 -19 -75 4 -5 8 -12 8 -25 -2 -47 -33 -96 -38 -387 -46 -124 -3 -131 -2 -153 20 -13 13 -23 34 -23 47 0 12 -4 27 -9 32 -5 6 -12 60 -15 120 -9 165 -10 175 -20 175 -5 0 -6 15 -4 33 6 34 1 57 -11 57 -4 0 -7 -9 -7 -20 1 -10 -3 -19 -9 -19 -5 0 -10 9 -10 22 0 28 -17 57 -60 104 -19 21 -35 41 -35 44 0 4 -23 16 -51 28 -27 12 -53 29 -56 36 -3 8 -13 15 -23 15 -10 0 -35 7 -56 16 -28 12 -63 15 -142 12 l-104 -3 -38 -42 -38 -43 -1 -147 c-1 -82 -3 -179 -3 -218 -1 -44 -6 -74 -14 -80 -9 -7 -11 -22 -4 -54 6 -34 4 -54 -10 -86 l-18 -42 -99 -7 c-54 -4 -130 -2 -170 3 -39 5 -110 6 -158 3 -75 -4 -89 -3 -97 12 -7 12 -23 16 -64 16 -39 0 -56 4 -60 15 -4 8 -14 15 -24 15 -10 0 -25 6 -33 14 -8 8 -31 21 -51 30 -48 20 -81 47 -81 66 0 10 -8 14 -22 13 -16 -2 -21 2 -17 12 4 8 1 15 -6 15 -16 0 -39 30 -40 51 0 9 -7 22 -15 29 -8 7 -15 21 -15 31 0 11 -6 19 -14 19 -17 0 -59 77 -50 91 3 6 -3 20 -14 32 -17 18 -22 41 -28 130 -4 59 -11 110 -15 113 -5 3 -9 46 -9 96 l0 91 44 43 c47 48 70 54 86 25z"/> <path d="M390 1045 c0 -14 5 -25 10 -25 6 0 10 11 10 25 0 14 -4 25 -10 25 -5 0 -10 -11 -10 -25z"/> <path d="M2990 1040 c0 -16 5 -30 10 -30 6 0 10 3 10 8 0 4 3 17 6 30 5 16 2 22 -10 22 -11 0 -16 -9 -16 -30z"/> <path d="M2956 992 c-8 -14 5 -102 15 -102 12 0 21 42 17 76 -3 28 -21 43 -32 26z"/> <path d="M445 881 c-8 -13 5 -61 16 -61 12 0 12 57 0 65 -5 3 -12 1 -16 -4z"/> <path d="M2877 757 c-3 -7 -1 -20 3 -28 7 -11 10 -10 16 4 4 10 2 23 -3 28 -7 7 -12 6 -16 -4z"/> <path d="M2753 664 c-9 -23 11 -38 26 -20 13 16 7 36 -10 36 -5 0 -12 -7 -16 -16z"/> <path d="M821 352 c-7 -13 -6 -23 1 -30 26 -26 54 -7 43 28 -8 25 -31 26 -44 2z"/> <path d="M223 288 c-11 -15 -9 -163 2 -200 14 -45 81 -88 137 -88 56 0 98 29 129 90 l29 55 1 -35 c1 -19 1 -52 0 -73 -3 -34 0 -37 23 -37 26 0 26 0 26 86 0 81 1 87 29 115 35 35 77 38 114 9 24 -19 26 -27 29 -113 3 -91 3 -92 28 -92 25 0 25 2 28 87 2 78 0 91 -21 125 -39 61 -59 74 -115 75 -34 0 -59 -6 -75 -18 -28 -22 -67 -85 -68 -111 0 -13 -3 -11 -10 7 -6 14 -9 48 -7 75 3 50 3 50 -27 50 l-30 0 0 -97 c0 -107 -12 -131 -65 -143 -36 -8 -66 8 -88 45 -15 24 -17 41 -11 102 7 76 0 98 -31 98 -10 0 -22 -6 -27 -12z"/> <path d="M994 289 c-36 -10 -65 -39 -94 -97 l-23 -43 24 -51 c27 -58 57 -85 106 -94 43 -8 111 13 124 38 21 40 -32 58 -62 22 -36 -44 -129 19 -129 87 0 11 13 34 29 50 33 32 75 38 107 14 27 -20 52 -18 59 5 8 25 1 37 -33 54 -40 20 -74 25 -108 15z"/> <path d="M2605 293 c-30 -7 -85 -64 -93 -97 -12 -45 -30 -43 -51 7 -25 59 -66 87 -126 87 -58 0 -95 -24 -120 -80 l-18 -40 -23 41 c-13 22 -34 49 -46 59 -31 26 -90 26 -113 0 -23 -25 -36 -25 -68 0 -33 26 -71 25 -107 -2 l-30 -22 -30 22 c-37 28 -90 29 -113 2 -21 -25 -39 -25 -62 0 -23 26 -82 26 -113 0 -12 -10 -29 -35 -38 -55 -17 -43 -31 -41 -57 6 -29 53 -55 69 -114 69 -47 0 -55 -4 -88 -37 -52 -53 -69 -98 -54 -138 16 -37 55 -86 83 -102 55 -32 133 -7 172 54 15 24 31 43 36 43 15 0 19 -25 9 -53 -14 -36 -4 -57 25 -57 27 0 27 0 24 108 -2 64 1 77 21 98 26 28 46 30 77 8 20 -14 22 -23 22 -115 l0 -99 30 0 30 0 0 98 c0 83 3 102 18 115 24 22 55 21 75 -1 13 -15 17 -39 17 -115 l0 -97 30 0 c34 0 33 -3 30 112 -1 66 1 79 19 97 28 28 55 26 81 -6 19 -25 21 -35 15 -95 -9 -83 -1 -108 31 -108 24 0 24 1 24 98 1 110 10 132 58 132 49 0 64 -32 56 -113 -9 -87 -1 -117 31 -117 24 0 25 3 25 54 0 30 4 57 8 60 4 2 20 -17 34 -43 21 -37 36 -50 67 -61 66 -21 150 5 135 44 -5 13 -13 16 -33 11 -69 -17 -86 -17 -114 5 -15 12 -27 29 -27 38 0 15 13 17 103 17 56 0 112 4 125 8 21 8 22 7 22 -62 0 -68 1 -71 24 -71 31 0 35 11 28 91 -4 53 -1 71 14 95 23 37 33 44 62 44 26 0 46 38 30 58 -11 12 -19 13 -53 5z m-240 -63 c18 0 56 -40 49 -52 -6 -10 -164 -11 -164 0 1 27 61 65 88 56 8 -2 20 -4 27 -4z m-1020 -25 c49 -48 25 -135 -42 -151 -46 -12 -101 28 -110 80 -5 30 -1 40 25 66 39 39 91 41 127 5z"/> <path d="M2762 288 c-36 -10 -98 -78 -107 -119 -13 -59 13 -110 76 -148 68 -42 179 -11 179 50 0 14 -53 10 -74 -6 -38 -29 -86 -11 -114 42 -18 34 -14 59 14 92 30 36 69 41 114 15 54 -33 81 7 35 50 -29 27 -77 36 -123 24z"/> <path d="M3015 293 c-30 -7 -95 -74 -95 -98 0 -11 -4 -26 -9 -33 -14 -23 12 -92 46 -123 41 -35 92 -46 144 -29 45 15 52 22 43 44 -7 18 -49 22 -59 6 -19 -31 -115 8 -115 48 0 22 3 23 38 18 20 -3 71 -7 112 -8 l75 -3 3 32 c4 40 -18 78 -73 125 -22 18 -79 29 -110 21z m65 -63 c14 0 50 -42 44 -52 -3 -4 -39 -8 -80 -8 -55 0 -74 3 -74 13 0 28 56 60 88 51 8 -2 18 -4 22 -4z"/> <path d="M827 153 c1 -76 2 -141 2 -145 1 -5 8 -8 16 -8 8 0 15 3 15 8 0 4 2 68 3 142 2 128 1 135 -18 138 -20 3 -20 -2 -18 -135z"/> </g> </svg>